<svg width="20" height="20" viewBox="0 0 20 20" fill="none" xmlns="http://www.w3.org/2000/svg">
    <path d="M11.6667 6.66536V4.9987C11.6667 4.07822 10.9205 3.33203 10 3.33203H4.16667C3.24619 3.33203 2.5 4.07822 2.5 4.9987V14.9987C2.5 15.9192 3.24619 16.6654 4.16667 16.6654H10C10.9205 16.6654 11.6667 15.9192 11.6667 14.9987V13.332"
          stroke="#EA5455" stroke-width="1.2" stroke-linecap="round" stroke-linejoin="round"/>
    <path d="M5.83398 9.25C5.41977 9.25 5.08398 9.58579 5.08398 10C5.08398 10.4142 5.41977 10.75 5.83398 10.75V9.25ZM17.5007 10V10.75C17.804 10.75 18.0775 10.5673 18.1936 10.287C18.3096 10.0068 18.2455 9.68417 18.031 9.46967L17.5007 10ZM15.531 6.96967C15.2381 6.67678 14.7632 6.67678 14.4703 6.96967C14.1774 7.26256 14.1774 7.73744 14.4703 8.03033L15.531 6.96967ZM14.4703 11.9697C14.1774 12.2626 14.1774 12.7374 14.4703 13.0303C14.7632 13.3232 15.2381 13.3232 15.531 13.0303L14.4703 11.9697ZM18.031 10.5303C18.3239 10.2374 18.3239 9.76256 18.031 9.46967C17.7381 9.17678 17.2632 9.17678 16.9703 9.46967L18.031 10.5303ZM5.83398 10.75H17.5007V9.25H5.83398V10.75ZM18.031 9.46967L15.531 6.96967L14.4703 8.03033L16.9703 10.5303L18.031 9.46967ZM15.531 13.0303L18.031 10.5303L16.9703 9.46967L14.4703 11.9697L15.531 13.0303Z"
          fill="#EA5455"/>
</svg>
